<?xml version="1.0" encoding="utf-8"?>
<svg viewBox="0 0 32 32" xmlns="http://www.w3.org/2000/svg" xmlns:svg="http://www.w3.org/2000/svg">
  <path fill-opacity="0" stroke-width="2" stroke="#ffffff" d="m2.124998,16.262497c0,-7.727895 6.2596,-13.987496 13.987497,-13.987496c7.7279,0 13.987499,6.259601 13.987499,13.987496c0,7.7279 -6.2596,13.987499 -13.987499,13.987499c-7.727897,0 -13.987497,-6.2596 -13.987497,-13.987499z"/>
  <path fill="#ffffff" d="m14.662,21.996002c1.400001,-3.250999 3.999003,-5.861002 7.238002,-7.281003l0.002001,0l-11.361003,-11.343999l-3.0425,-3.08069c-3.242001,1.42 -5.923379,3.986819 -7.32337,7.239821l8.80437,8.793872l5.6825,5.671999z"/>
  <path fill="#ffffff" d="m22.714003,18.590004c-1.882,0.823999 -3.389999,2.342999 -4.205,4.228998l5.306,1.097l-1.101,-5.325998z"/>
</svg>