<?xml version="1.0" encoding="utf-8"?>
<svg version="1.1" xmlns="http://www.w3.org/2000/svg" xmlns:xlink="http://www.w3.org/1999/xlink" viewBox="0 0 512 512">
  <path fill="#ffffff" d="m338.9325,254.73273c-2.7587,-53.7213 -42.64825,-86.03352 -90.81926,-86.03352l-1.81364,0c-55.58786,0 -86.41135,43.71193 -86.41135,93.36995c0,55.58963 37.28972,90.70813 86.20149,90.70813c54.51491,0 90.37047,-39.94247 92.96495,-87.17941l-0.12253,-10.86514l0.00037,0l-0.00003,0zm-92.36253,-134.12075c37.14186,0 72.06859,16.419 97.70509,42.12824l0,0.09587c0,-12.33736 8.30704,-21.64256 19.83444,-21.64256l2.91922,-0.01956c18.02805,0 21.74091,17.06667 21.74091,22.4655l0.08163,191.87061c-1.27533,12.56726 12.96695,19.05533 20.858,10.98727c30.81427,-31.66293 67.66794,-162.77498 -19.1539,-238.72443c-80.91397,-70.82441 -189.48596,-59.1584 -247.22675,-19.35647c-61.38795,42.33453 -100.65891,136.04395 -62.50809,224.05164c41.59364,95.98645 160.60377,124.61685 231.34043,96.05566c35.81735,-14.45566 52.35477,33.95807 15.15643,49.7803c-56.20123,23.93597 -212.65044,21.52026 -285.72825,-105.07782c-49.37709,-85.47534 -46.76059,-235.87268 84.20552,-313.78905c100.17726,-59.62546 232.2637,-43.12263 311.90784,40.05385c83.25119,86.95306 78.38718,249.78824 -2.80414,313.08463c-36.79355,28.76538 -91.44339,0.78082 -91.0986,-41.12851l-0.37408,-13.70035c-25.61804,25.41931 -59.71478,40.25085 -96.85658,40.25085c-73.38423,0 -137.95771,-64.55344 -137.95771,-137.95044c0,-74.10297 64.57348,-139.43562 137.95771,-139.43562l0,0"/>
</svg>