<?xml version="1.0" encoding="utf-8"?>
<svg version="1.1" xmlns="http://www.w3.org/2000/svg" xmlns:xlink="http://www.w3.org/1999/xlink" viewBox="0 0 20 28">
  <path fill="#ffffff" d="M10 14.172q-2.938 0-5.016-2.078t-2.078-5q0-2.938 2.078-5.016t5.016-2.078 5.016 2.078 2.078 5.016q0 2.922-2.078 5t-5.016 2.078zM10 3.594q-1.437 0-2.461 1.023t-1.023 2.477q0 1.437 1.023 2.461t2.461 1.023 2.461-1.023 1.023-2.461q0-1.453-1.023-2.477t-2.461-1.023zM18.172 15.031q0.203 0.422 0.234 0.773t-0.070 0.633-0.414 0.602-0.664 0.578-0.961 0.648q-1.797 1.141-4.922 1.469l1.141 1.125 4.172 4.172q0.469 0.484 0.469 1.156t-0.469 1.141l-0.187 0.203q-0.484 0.469-1.156 0.469t-1.156-0.469q-1.047-1.062-4.172-4.188l-4.172 4.188q-0.484 0.469-1.156 0.469t-1.141-0.469l-0.187-0.203q-0.484-0.469-0.484-1.141t0.484-1.156l5.297-5.297q-3.172-0.328-4.953-1.469-0.609-0.391-0.961-0.648t-0.664-0.578-0.414-0.602-0.070-0.633 0.234-0.773q0.156-0.313 0.438-0.547t0.656-0.344 0.875 0.031 1.016 0.547q0.078 0.063 0.234 0.172t0.672 0.383 1.078 0.477 1.437 0.375 1.766 0.172q1.422 0 2.719-0.398t1.875-0.789l0.594-0.391q0.516-0.406 1.016-0.547t0.875-0.031 0.656 0.344 0.438 0.547z"></path>
</svg>