<?xml version="1.0" encoding="utf-8"?>
<svg version="1.1" xmlns="http://www.w3.org/2000/svg" xmlns:xlink="http://www.w3.org/1999/xlink" viewBox="0 0 27 28">
  <path fill="#ffffff" d="M24.453 2q1.016 0 1.719 0.711t0.703 1.727v8.109q0 2.75-1.062 5.25t-2.852 4.297-4.281 2.852-5.227 1.055q-2.75 0-5.242-1.055t-4.289-2.852-2.859-4.297-1.062-5.25v-8.109q0-1 0.719-1.719t1.719-0.719h22.016zM13.453 18.625q0.734 0 1.281-0.516l6.312-6.062q0.578-0.547 0.578-1.328 0-0.766-0.539-1.305t-1.305-0.539q-0.734 0-1.281 0.516l-5.047 4.844-5.047-4.844q-0.547-0.516-1.266-0.516-0.766 0-1.305 0.539t-0.539 1.305q0 0.797 0.562 1.328l6.328 6.062q0.516 0.516 1.266 0.516z"></path>
</svg>