<?xml version="1.0" encoding="utf-8"?>
<svg version="1.1" xmlns="http://www.w3.org/2000/svg" xmlns:xlink="http://www.w3.org/1999/xlink" viewBox="0 0 30 28">
  <path fill="#ffffff" d="M29.953 8.125q0.359 1-2.344 4.594-0.375 0.5-1.016 1.328-1.219 1.563-1.406 2.047-0.266 0.641 0.219 1.266 0.266 0.328 1.266 1.281h0.016l0.063 0.063q2.203 2.047 2.984 3.453 0.047 0.078 0.102 0.195t0.109 0.414-0.008 0.531-0.391 0.43-0.922 0.195l-4 0.063q-0.375 0.078-0.875-0.078t-0.812-0.344l-0.313-0.187q-0.469-0.328-1.094-1t-1.070-1.211-0.953-0.906-0.883-0.242q-0.047 0.016-0.125 0.055t-0.266 0.227-0.336 0.461-0.266 0.812-0.102 1.211q0 0.234-0.055 0.43t-0.117 0.289l-0.063 0.078q-0.281 0.297-0.828 0.344h-1.797q-1.109 0.063-2.281-0.258t-2.055-0.828-1.609-1.031-1.102-0.898l-0.391-0.375q-0.156-0.156-0.43-0.469t-1.117-1.422-1.656-2.359-1.914-3.297-2.039-4.25q-0.094-0.25-0.094-0.422t0.047-0.25l0.063-0.094q0.234-0.297 0.891-0.297l4.281-0.031q0.187 0.031 0.359 0.102t0.25 0.133l0.078 0.047q0.25 0.172 0.375 0.5 0.313 0.781 0.719 1.617t0.641 1.273l0.25 0.453q0.453 0.938 0.875 1.625t0.758 1.070 0.648 0.602 0.531 0.219 0.422-0.078q0.031-0.016 0.078-0.078t0.187-0.344 0.211-0.734 0.148-1.266 0-1.953q-0.031-0.625-0.141-1.141t-0.219-0.719l-0.094-0.187q-0.391-0.531-1.328-0.672-0.203-0.031 0.078-0.375 0.266-0.297 0.594-0.469 0.828-0.406 3.734-0.375 1.281 0.016 2.109 0.203 0.313 0.078 0.523 0.211t0.32 0.375 0.164 0.5 0.055 0.711-0.016 0.859-0.039 1.102-0.023 1.289q0 0.172-0.016 0.656t-0.008 0.75 0.055 0.633 0.18 0.609 0.352 0.383q0.125 0.031 0.266 0.063t0.406-0.172 0.594-0.539 0.812-1.047 1.062-1.68q0.938-1.625 1.672-3.516 0.063-0.156 0.156-0.273t0.172-0.164l0.063-0.047 0.078-0.039t0.203-0.047 0.313-0.008l4.5-0.031q0.609-0.078 1 0.039t0.484 0.258z"></path>
</svg>